<svg id="visual" viewBox="0 0 900 600" width="900" height="600" xmlns="http://www.w3.org/2000/svg" xmlns:xlink="http://www.w3.org/1999/xlink" version="1.1"><path d="M0 223L82 223L82 187L164 187L164 181L245 181L245 229L327 229L327 157L409 157L409 91L491 91L491 121L573 121L573 193L655 193L655 187L736 187L736 91L818 91L818 109L900 109L900 115L900 0L900 0L818 0L818 0L736 0L736 0L655 0L655 0L573 0L573 0L491 0L491 0L409 0L409 0L327 0L327 0L245 0L245 0L164 0L164 0L82 0L82 0L0 0Z" fill="#fa7268"></path><path d="M0 295L82 295L82 235L164 235L164 235L245 235L245 307L327 307L327 217L409 217L409 145L491 145L491 199L573 199L573 271L655 271L655 247L736 247L736 151L818 151L818 151L900 151L900 175L900 113L900 107L818 107L818 89L736 89L736 185L655 185L655 191L573 191L573 119L491 119L491 89L409 89L409 155L327 155L327 227L245 227L245 179L164 179L164 185L82 185L82 221L0 221Z" fill="#ed6266"></path><path d="M0 349L82 349L82 319L164 319L164 337L245 337L245 385L327 385L327 331L409 331L409 235L491 235L491 301L573 301L573 325L655 325L655 325L736 325L736 259L818 259L818 217L900 217L900 259L900 173L900 149L818 149L818 149L736 149L736 245L655 245L655 269L573 269L573 197L491 197L491 143L409 143L409 215L327 215L327 305L245 305L245 233L164 233L164 233L82 233L82 293L0 293Z" fill="#df5265"></path><path d="M0 397L82 397L82 397L164 397L164 397L245 397L245 421L327 421L327 397L409 397L409 301L491 301L491 367L573 367L573 391L655 391L655 403L736 403L736 301L818 301L818 289L900 289L900 331L900 257L900 215L818 215L818 257L736 257L736 323L655 323L655 323L573 323L573 299L491 299L491 233L409 233L409 329L327 329L327 383L245 383L245 335L164 335L164 317L82 317L82 347L0 347Z" fill="#d04263"></path><path d="M0 487L82 487L82 475L164 475L164 493L245 493L245 469L327 469L327 463L409 463L409 385L491 385L491 463L573 463L573 463L655 463L655 451L736 451L736 373L818 373L818 349L900 349L900 397L900 329L900 287L818 287L818 299L736 299L736 401L655 401L655 389L573 389L573 365L491 365L491 299L409 299L409 395L327 395L327 419L245 419L245 395L164 395L164 395L82 395L82 395L0 395Z" fill="#c13361"></path><path d="M0 601L82 601L82 601L164 601L164 601L245 601L245 601L327 601L327 601L409 601L409 601L491 601L491 601L573 601L573 601L655 601L655 601L736 601L736 601L818 601L818 601L900 601L900 601L900 395L900 347L818 347L818 371L736 371L736 449L655 449L655 461L573 461L573 461L491 461L491 383L409 383L409 461L327 461L327 467L245 467L245 491L164 491L164 473L82 473L82 485L0 485Z" fill="#b0235f"></path></svg>